Coordinates
version=1
nRows=54
nColumns=12
inDegrees=yes

Units are S.I. units (second, meters, Newtons, ...)
Angles are in degrees

endheader
time	SC_y	SC_z	SC_x	AC_y	AC_z	AC_x	GH_y	GH_z	GH_yy	EL_x	PS_y
       0.0              -18.28          2.004          48.47          56.21          -15.0         -13.56         -55.51          85.01          170.4           53.0          131.6
   0.03999              -18.28          2.007          48.47          56.21          -15.0         -13.56         -55.49           85.0          170.3          53.01          131.6
   0.07998              -18.29           2.01          48.47           56.2          -15.0         -13.56         -55.47           85.0          170.3          53.01          131.5
      0.12              -18.29          2.013          48.47           56.2          -15.0         -13.56         -55.45          84.99          170.3          53.02          131.5
      0.16               -18.3          2.016          48.47           56.2          -15.0         -13.56         -55.42          84.98          170.2          53.03          131.5
    0.1999              -18.31          2.019          48.47          56.19          -15.0         -13.56          -55.4          84.97          170.2          53.03          131.5
    0.2399              -18.31          2.023          48.47          56.19         -14.99         -13.56         -55.37          84.96          170.2          53.04          131.5
    0.2799              -18.32          2.027          48.47          56.18         -14.99         -13.56         -55.35          84.95          170.2          53.05          131.5
    0.3199              -18.33          2.031          48.47          56.18         -14.99         -13.56         -55.32          84.94          170.1          53.06          131.5
    0.3599              -18.34          2.036          48.47          56.17         -14.99         -13.56         -55.29          84.93          170.1          53.07          131.5
    0.3999              -18.35          2.041          48.47          56.17         -14.99         -13.56         -55.25          84.92          170.0          53.08          131.5
    0.4399              -18.36          2.046          48.47          56.16         -14.99         -13.56         -55.21          84.91          170.0          53.09          131.5
    0.4799              -18.37          2.051          48.47          56.16         -14.99         -13.56         -55.18          84.89          169.9           53.1          131.5
    0.5199              -18.38          2.057          48.47          56.15         -14.99         -13.56         -55.13          84.88          169.9          53.11          131.5
    0.5599              -18.39          2.064          48.47          56.14         -14.99         -13.56         -55.09          84.86          169.8          53.13          131.5
    0.5998              -18.41          2.071          48.47          56.13         -14.99         -13.56         -55.04          84.84          169.8          53.14          131.4
    0.6398              -18.42          2.079          48.47          56.13         -14.98         -13.56         -54.98          84.82          169.7          53.16          131.4
    0.6798              -18.44          2.087          48.47          56.12         -14.98         -13.56         -54.92           84.8          169.6          53.17          131.4
    0.7198              -18.46          2.097          48.47          56.11         -14.98         -13.56         -54.86          84.78          169.5          53.19          131.4
    0.7598              -18.47          2.107          48.47           56.1         -14.98         -13.56         -54.79          84.75          169.4          53.21          131.4
    0.7998               -18.5          2.118          48.46          56.08         -14.98         -13.56         -54.71          84.73          169.3          53.24          131.4
    0.8398              -18.52           2.13          48.46          56.07         -14.97         -13.56         -54.62           84.7          169.2          53.26          131.3
    0.8798              -18.55          2.144          48.46          56.05         -14.97         -13.56         -54.53          84.66          169.1          53.29          131.3
    0.9198              -18.57          2.159          48.46          56.04         -14.97         -13.56         -54.42          84.62          169.0          53.32          131.3
    0.9597              -18.61          2.175          48.46          56.02         -14.96         -13.56         -54.31          84.58          168.8          53.36          131.3
    0.9997              -18.64          2.194          48.46           56.0         -14.96         -13.56         -54.18          84.54          168.7          53.39          131.2
      1.04              -18.68          2.214          48.46          55.97         -14.96         -13.56         -54.03          84.48          168.5          53.44          131.2
      1.08              -18.73          2.238          48.46          55.95         -14.95         -13.56         -53.87          84.43          168.3          53.49          131.1
      1.12              -18.78          2.264          48.45          55.92         -14.95         -13.56         -53.68          84.36          168.1          53.54          131.1
      1.16              -18.83          2.294          48.45          55.89         -14.94         -13.56         -53.47          84.28          167.8           53.6          131.0
       1.2               -18.9          2.328          48.45          55.85         -14.93         -13.56         -53.23           84.2          167.5          53.67          131.0
      1.24              -18.97          2.368          48.45           55.8         -14.93         -13.56         -52.95           84.1          167.1          53.75          130.9
      1.28              -19.06          2.413          48.44          55.75         -14.92         -13.57         -52.64          83.99          166.7          53.85          130.8
      1.32              -19.16          2.466          48.44          55.69         -14.91         -13.57         -52.27          83.86          166.3          53.96          130.7
      1.36              -19.28          2.527          48.43          55.63         -14.89         -13.57         -51.83           83.7          165.7          54.08          130.6
       1.4              -19.42            2.6          48.43          55.54         -14.88         -13.57         -51.32          83.52          165.1          54.24          130.5
      1.44              -19.58          2.686          48.42          55.45         -14.86         -13.57         -50.72           83.3          164.3          54.41          130.3
      1.48              -19.78           2.79          48.41          55.33         -14.84         -13.58         -49.99          83.05          163.4          54.63          130.2
      1.52              -20.02          2.915           48.4          55.19         -14.82         -13.58         -49.11          82.73          162.3          54.89          129.9
      1.56              -20.31          3.068          48.39          55.02         -14.79         -13.58         -48.04          82.35          161.0           55.2          129.7
       1.6              -20.67          3.257          48.38          54.81         -14.75         -13.59         -46.71          81.88          159.3           55.6          129.3
      1.64              -21.12          3.492          48.36          54.55          -14.7         -13.59         -45.06          81.29          157.2          56.08          128.9
      1.68              -21.69          3.788          48.34          54.22         -14.64          -13.6         -42.98          80.55          154.6           56.7          128.4
      1.72              -22.41          4.165          48.31           53.8         -14.57         -13.61         -40.33           79.6          151.3          57.48          127.7
      1.76              -23.33          4.648          48.27          53.26         -14.47         -13.62         -36.94           78.4          147.0          58.48          126.8
       1.8              -24.52          5.267          48.22          52.56         -14.34         -13.64         -32.59          76.85          141.6          59.76          125.7
      1.84              -26.03          6.058          48.16          51.68         -14.19         -13.66         -27.04          74.87          134.6           61.4          124.3
      1.88              -27.93          7.052          48.08          50.57         -13.99         -13.69         -20.05          72.38          125.8          63.46          122.6
     1.919              -30.24          8.264          47.99          49.22         -13.74         -13.72         -11.54          69.35          115.1          65.97          120.4
     1.959              -32.93          9.668          47.88          47.65         -13.46         -13.75         -1.676          65.84          102.7          68.87          117.9
     1.999              -35.84          11.19          47.77          45.95         -13.16         -13.79          9.006          62.04          89.33          72.02          115.2
     2.039              -38.74          12.71          47.65          44.25         -12.85         -13.83          19.69          58.23          75.92          75.17          112.5
     2.079              -41.43          14.11          47.54          42.68         -12.57         -13.87          29.55          54.72          63.53          78.08          110.0
     2.119              -43.75          15.33          47.45          41.33         -12.33          -13.9          38.06          51.69          52.84          80.59          107.8
